<svg width="245" height="326" viewBox="0 0 245 326" fill="none" xmlns="http://www.w3.org/2000/svg">
<path d="M122.633 0C55.2748 0 0.699951 55.2304 0.699951 123.353V205.407C0.699951 237.201 12.6092 266.155 32.1119 288.007C34.3517 273.858 42.0545 238.949 65.3813 218.846C81.0053 205.352 92.9691 187.27 76.9081 142.965C75.1053 137.994 75.0507 132.531 76.9081 127.614C92.696 100.354 119.082 110.734 123.07 106.036C127.058 101.338 138.858 76.3174 138.858 76.3174C140.388 73.6952 141.48 70.9637 142.245 68.3415C144.922 58.9452 143.338 48.8388 138.366 40.4258C138.202 40.1527 138.366 39.8795 138.694 39.8795L159.508 42.611C169.177 43.8675 178.901 49.2212 182.288 58.4535C184.364 64.1896 187.369 76.4266 189.773 83.6924C190.592 86.1507 191.685 88.3359 192.996 90.521C195.017 93.9081 199.169 101.338 202.119 109.368L203.812 114.449C203.102 114.394 202.01 114.285 200.698 114.285C198.076 114.285 196.765 114.285 196.164 114.886C195.946 115.104 196.82 119.802 196.929 119.802C197.257 119.802 198.513 119.529 200.371 119.311C202.61 119.092 204.195 119.42 205.287 119.639C206.325 125.047 205.724 129.363 203.375 132.968C196.984 142.747 194.744 151.706 194.744 154.601C194.689 163.943 198.732 170.717 200.535 173.339L209.439 185.959C211.023 188.199 210.805 191.258 208.948 193.224C205.56 196.83 201.518 201.036 198.513 204.26C197.967 204.861 197.639 205.625 197.639 206.445V214.257C197.639 215.95 196.219 217.316 194.525 217.207C193.761 217.207 193.05 216.988 192.504 216.77C190.974 216.169 189.336 215.786 187.697 215.841C186.331 215.896 184.801 216.114 183.217 216.551C178.901 217.808 176.224 220.211 174.586 221.523C171.253 224.145 165.954 227.259 157.268 228.788C157.268 228.788 157.213 228.843 157.268 228.897C158.634 229.498 169.669 233.923 191.63 231.629C194.088 231.356 196.219 233.322 196.219 235.835C196.219 237.256 196.055 239.004 195.673 241.025C195.126 244.085 192.886 246.543 189.936 247.308C185.73 248.4 178.847 248.892 169.887 244.959C169.833 244.959 169.724 244.959 169.724 245.068L169.177 254.136C169.177 254.191 169.177 254.246 169.286 254.246H179.775C184.419 254.246 188.625 257.523 189.336 262.221C189.336 262.495 189.445 262.822 189.445 263.096C189.773 268.121 186.495 273.038 181.305 275.059C153.007 292.541 118.263 262.058 113.401 257.633C113.291 257.523 113.127 257.633 113.237 257.796C128.205 284.456 151.86 300.407 151.86 300.407V325.1C205.178 311.934 244.73 263.259 244.73 205.298V123.244C244.621 55.2304 190.046 0 122.633 0Z" fill="white"/>
<path d="M167.648 120.732C168.412 120.896 169.123 120.568 169.123 119.803V117.126C169.123 116.689 168.85 116.252 168.412 116.143C136.618 105.763 110.833 136.192 110.833 136.192C141.043 113.029 161.584 119.584 167.648 120.677" fill="white"/>
<path d="M161.037 141.38C160.327 142.418 160.874 144.822 157.869 146.079C151.75 148.701 142.3 148.592 127.331 149.575C122.797 149.903 116.569 149.629 116.569 149.629C116.569 149.629 139.404 153.454 161.42 149.356C162.021 149.247 162.458 148.646 162.349 148.045L161.42 141.49C161.42 141.271 161.092 141.217 160.983 141.38" fill="white"/>
</svg>
