<svg width="245" height="326" viewBox="0 0 245 326" fill="none" xmlns="http://www.w3.org/2000/svg">
<path d="M122.097 0C189.455 0 244.03 55.2304 244.03 123.353V205.407C244.03 237.201 232.121 266.155 212.618 288.007C210.378 273.858 202.675 238.949 179.348 218.846C163.724 205.352 151.761 187.27 167.822 142.965C169.624 137.994 169.679 132.531 167.822 127.614C152.034 100.354 125.648 110.734 121.66 106.036C117.672 101.338 105.872 76.3174 105.872 76.3174C104.342 73.6952 103.25 70.9637 102.485 68.3415C99.808 58.9452 101.392 48.8388 106.364 40.4258C106.527 40.1527 106.364 39.8795 106.036 39.8795L85.2219 42.611C75.5525 43.8675 65.8285 49.2212 62.4414 58.4535C60.3655 64.1896 57.3609 76.4266 54.9572 83.6924C54.1377 86.1507 53.0451 88.3359 51.734 90.521C49.7127 93.9081 45.5609 101.338 42.6109 109.368L40.9174 114.449C41.6276 114.394 42.7202 114.285 44.0313 114.285C46.6535 114.285 47.9646 114.285 48.5655 114.886C48.784 115.104 47.91 119.802 47.8007 119.802C47.4729 119.802 46.2165 119.529 44.3591 119.311C42.1192 119.092 40.535 119.42 39.4424 119.639C38.4044 125.047 39.0054 129.363 41.3544 132.968C47.7461 142.747 49.9859 151.706 49.9859 154.601C50.0405 163.943 45.9979 170.717 44.1952 173.339L35.2906 185.959C33.7063 188.199 33.9248 191.258 35.7822 193.224C39.1692 196.83 43.2118 201.036 46.2165 204.26C46.7628 204.861 47.0905 205.625 47.0905 206.445V214.257C47.0905 215.95 48.5109 217.316 50.2044 217.207C50.9692 217.207 51.6794 216.988 52.2257 216.77C53.7553 216.169 55.3942 215.786 57.0331 215.841C58.3988 215.896 59.9285 216.114 61.5127 216.551C65.8285 217.808 68.5053 220.211 70.1442 221.523C73.4766 224.145 78.7756 227.259 87.4617 228.788C87.4617 228.788 87.5164 228.843 87.4617 228.897C86.096 229.498 75.0608 233.923 53.0998 231.629C50.6414 231.356 48.5109 233.322 48.5109 235.835C48.5109 237.256 48.6748 239.004 49.0572 241.025C49.6035 244.085 51.8433 246.543 54.7933 247.308C58.9998 248.4 65.8831 248.892 74.8423 244.959C74.8969 244.959 75.0062 244.959 75.0062 245.068L75.5525 254.136C75.5525 254.191 75.5525 254.246 75.4432 254.246H64.9544C60.3109 254.246 56.1044 257.523 55.3942 262.221C55.3942 262.495 55.2849 262.822 55.2849 263.096C54.9572 268.121 58.235 273.038 63.4248 275.059C91.7228 292.541 126.467 262.058 131.329 257.633C131.438 257.523 131.602 257.633 131.493 257.796C116.525 284.456 92.87 300.407 92.87 300.407V325.1C39.5517 311.934 -8.57938e-05 263.259 -8.57938e-05 205.298V123.244C0.109173 55.2304 54.684 0 122.097 0Z" fill="white"/>
<path d="M77.0821 120.732C76.3173 120.896 75.6071 120.568 75.6071 119.803V117.126C75.6071 116.689 75.8802 116.252 76.3172 116.143C108.112 105.763 133.897 136.192 133.897 136.192C103.687 113.029 83.1459 119.584 77.0821 120.677" fill="white"/>
<path d="M83.6922 141.38C84.4024 142.418 83.8561 144.822 86.8608 146.079C92.9793 148.701 102.43 148.592 117.399 149.575C121.933 149.903 128.161 149.629 128.161 149.629C128.161 149.629 105.326 153.454 83.3098 149.356C82.7089 149.247 82.2719 148.646 82.3811 148.045L83.3098 141.49C83.3098 141.271 83.6376 141.217 83.7469 141.38" fill="white"/>
</svg>
