<svg width="969" height="284" viewBox="0 0 969 284" fill="none" xmlns="http://www.w3.org/2000/svg">
<rect x="540" y="146" width="135" height="135" rx="24" fill="white"/>
<path d="M644 218C646.209 218 648 216.209 648 214C648 211.791 646.209 210 644 210L644 218ZM572 214L612 237.094L612 190.906L572 214ZM644 210L608 210L608 218L644 218L644 210Z" fill="#EA5B28"/>
<rect x="687" y="146" width="135" height="135" rx="24" fill="white"/>
<path d="M759 178C759 175.791 757.209 174 755 174C752.791 174 751 175.791 751 178H759ZM755 250L778.094 210H731.906L755 250ZM751 178V214H759V178H751Z" fill="#EA5B28"/>
<rect width="135" height="135" rx="24" transform="matrix(1 0 0 -1 687 135)" fill="white"/>
<path d="M759 103C759 105.209 757.209 107 755 107C752.791 107 751 105.209 751 103H759ZM755 31L778.094 71H731.906L755 31ZM751 103V67H759V103H751Z" fill="#EA5B28"/>
<rect x="834" y="146" width="135" height="135" rx="24" fill="white"/>
<path d="M866 210C863.791 210 862 211.791 862 214C862 216.209 863.791 218 866 218V210ZM938 214L898 190.906V237.094L938 214ZM866 218H902V210H866V218Z" fill="#EA5B28"/>
<rect y="149" width="135" height="135" rx="24" fill="white"/>
<rect x="147" y="149" width="135" height="135" rx="24" fill="white"/>
<rect width="135" height="135" rx="24" transform="matrix(1 0 0 -1 147 138)" fill="white"/>
<rect x="294" y="149" width="135" height="135" rx="24" fill="white"/>
<path d="M231.648 96H197.984V88.384L221.088 56.768H198.496V49.216H231.264V56.512L207.968 88.448H231.648V96Z" fill="#EA5B28"/>
<path d="M198.496 208.272C198.496 200.08 205.28 194.384 215.136 194.384C224.608 194.384 230.624 199.632 230.88 208.08H222.688C222.496 204.048 219.616 201.68 215.008 201.68C209.952 201.68 206.688 204.112 206.688 208.016C206.688 211.344 208.48 213.2 212.384 214.096L219.744 215.696C227.744 217.424 231.648 221.52 231.648 228.496C231.648 237.2 224.864 242.832 214.56 242.832C204.576 242.832 198.048 237.52 197.856 229.136H206.048C206.112 233.104 209.312 235.472 214.56 235.472C220 235.472 223.456 233.104 223.456 229.2C223.456 226.064 221.856 224.208 218.016 223.376L210.592 221.712C202.656 219.984 198.496 215.44 198.496 208.272Z" fill="#EA5B28"/>
<path d="M83.92 245.52L78.8 239.76C75.472 241.68 71.504 242.768 67.088 242.768C53.712 242.768 44.496 232.848 44.496 218.576C44.496 204.368 53.776 194.384 67.152 194.384C80.528 194.384 89.872 204.304 89.872 218.576C89.872 225.296 87.824 231.056 84.176 235.28L89.168 240.848L83.92 245.52ZM81.232 218.576C81.232 208.592 75.728 202.256 67.152 202.256C58.576 202.256 53.072 208.592 53.072 218.576C53.072 228.56 58.576 234.896 67.152 234.896C69.456 234.896 71.504 234.448 73.36 233.552L67.152 226.576L72.336 221.904L78.544 228.88C80.272 226.192 81.232 222.672 81.232 218.576Z" fill="#EA5B28"/>
<path d="M358.016 242H341.184V195.216H357.568C371.392 195.216 380.928 204.752 380.928 218.704C380.928 232.464 371.584 242 358.016 242ZM356.8 202.768H349.376V234.448H357.248C366.592 234.448 372.288 228.432 372.288 218.704C372.288 208.784 366.464 202.768 356.8 202.768Z" fill="#EA5B28"/>
</svg>
