<svg width="4831" height="8628" viewBox="0 0 4831 8628" fill="none" xmlns="http://www.w3.org/2000/svg">
<path d="M3565.54 1347.65C3640.39 1277.5 3750.47 1097.75 3595.26 936.337C3595.15 936.216 3594.97 936.157 3594.81 936.187L3392.93 973.572C3392.89 973.58 3392.85 973.593 3392.81 973.611C3340.37 998.57 3216.19 1042.44 3138.33 1018.55C3138.26 1018.53 3138.21 1018.5 3138.16 1018.45L3093.51 981.248C3093.38 981.139 3093.21 981.101 3093.05 981.151C3052.95 993.653 2955.35 1017.01 2883.6 1011.03C2811.82 1005.05 2694.25 1018.48 2644.19 1025.97C2644.03 1026 2643.88 1025.94 2643.77 1025.83L2629.16 1011.22C2629.04 1011.1 2628.88 1011.05 2628.72 1011.08C2548.74 1026.06 2381.8 1052.96 2351.87 1040.99C2321.93 1029.01 2244.59 1016.03 2209.62 1011.04C2209.59 1011.03 2209.56 1011.03 2209.53 1011.02C2164.63 996.041 2085.4 958.66 2127.09 928.726C2127.16 928.678 2127.23 928.644 2127.32 928.633C2164.79 923.613 2236.52 903.141 2224.55 861.247C2212.63 819.522 2155.25 828.698 2127.62 838.626C2127.37 838.714 2127.12 838.609 2127.01 838.371C2114.54 810.661 2097.39 744.181 2127.2 696.486C2144.4 668.963 2145.96 656.586 2141.81 651.981L2381.43 659.035C2381.66 659.042 2381.87 658.898 2381.92 658.673C2396.97 601.126 2435.83 485.285 2471.7 479.307C2507.65 473.315 2521.62 421.89 2524.12 396.926C2529.11 364.511 2524.13 293.744 2464.42 269.696C2464.29 269.642 2464.18 269.539 2464.14 269.403C2449.14 226.867 2422.29 133.249 2434.25 97.3592C2446.23 61.4112 2014.86 17.4747 1797.67 0C1782.69 0 1752.74 13.4805 1752.74 67.4025C1752.74 121.275 1737.79 438.782 1730.29 591.225C1730.28 591.473 1730.45 591.68 1730.69 591.727L2037.05 651.498C2037.22 651.531 2037.36 651.639 2037.42 651.8C2049.9 684.413 2068.72 764.048 2044.81 823.808C2021.1 883.093 2044.32 927.712 2059.32 943.154C2059.56 943.398 2059.49 943.785 2059.19 943.937C2034.05 956.41 1979.21 977.797 1955.27 966.26C1955.07 966.166 1954.96 965.969 1955 965.755C1962.41 915.95 1965.29 808.454 1918.29 771.99C1917.97 771.737 1917.49 771.964 1917.46 772.375C1916.43 787.572 1891.48 814.67 1797.79 808.837C1797.71 808.833 1797.64 808.843 1797.57 808.871C1772.61 818.908 1730.36 856.802 1760.18 928.528C1760.21 928.606 1760.26 928.674 1760.32 928.726C1772.88 938.727 1805.24 955.593 1835.12 943.635C1865.07 931.646 1887.54 963.604 1895.03 981.081C1900.02 998.556 1895.03 1033.51 1835.12 1033.51C1775.34 1033.51 1755.32 1048.42 1752.75 1055.92C1752.74 1055.96 1752.73 1055.99 1752.71 1056.02C1737.74 1081 1721.32 1133.87 1775.2 1145.84C1829.06 1157.81 1912.3 1215.6 1947.32 1243.1C1947.41 1243.17 1947.52 1243.2 1947.63 1243.2H2082.13C2082.21 1243.2 2082.3 1243.22 2082.37 1243.27C2129.79 1270.77 2201.95 1346.55 2112.34 1430.32C2112.26 1430.39 2112.16 1430.44 2112.06 1430.45C2069.57 1435.44 1984.9 1442.4 1984.9 1430.43C1984.9 1418.45 1790.18 1400.47 1692.82 1392.99H1356.21C1355.97 1392.99 1355.78 1393.13 1355.72 1393.36C1323.3 1528.24 1276.56 1827.04 1348.17 1946.93C1348.27 1947.09 1348.44 1947.18 1348.62 1947.17L1872.56 1917.23C1924.99 1909.74 2034.33 1908.24 2052.3 1962.16C2069.7 2014.36 2088.51 2033.34 2096.48 2036.76C2096.83 2036.91 2096.93 2037.36 2096.67 2037.63L2060.27 2074.02C2060.03 2074.26 2060.07 2074.65 2060.37 2074.81C2098.15 2094.85 2187.41 2131.36 2247.02 2119.43C2306.94 2107.45 2242.03 2174.35 2202.09 2209.3C2177.13 2236.76 2148.18 2332.08 2231.98 2493.77C2232.02 2493.85 2232.04 2493.94 2232.03 2494.03L2217.1 2710.54C2217.08 2710.83 2216.83 2711.05 2216.55 2711C2163.95 2703.45 2059.79 2682.54 2059.79 2658.65C2059.79 2634.84 2030.22 2628.77 2015.15 2628.7C2014.96 2628.7 2014.81 2628.79 2014.72 2628.95C2002.27 2651.47 1980.63 2704.78 1992.24 2740.59C1992.33 2740.84 1992.57 2740.99 1992.83 2740.92C2030.43 2731.05 2123.84 2726.32 2201.26 2785.34C2201.59 2785.59 2201.49 2786.12 2201.08 2786.22L2022.6 2830.84C2022.44 2830.88 2022.32 2830.99 2022.26 2831.15C1997.27 2898.64 1947.46 3039.13 1947.46 3063.07C1947.46 3087.03 1937.47 3127.98 1932.48 3145.45C1927.5 3175.34 1905.61 3235.06 1857.9 3235.32C1857.71 3235.32 1857.53 3235.43 1857.45 3235.6L1835.26 3279.98C1835.17 3280.15 1835 3280.26 1834.81 3280.26H1805.51C1805.3 3280.26 1805.11 3280.39 1805.04 3280.58L1685.46 3601.96C1685.38 3602.16 1685.44 3602.38 1685.6 3602.52L1737.49 3646.99C1737.65 3647.13 1737.71 3647.36 1737.63 3647.56L1041.28 5392.16C1041.27 5392.19 1041.26 5392.21 1041.24 5392.24C1028.74 5412.22 994.811 5449.11 958.885 5437.14C922.937 5425.15 869.015 5616.88 846.548 5714.23C841.562 5741.66 848.029 5811.41 913.694 5871.27C913.846 5871.41 913.901 5871.63 913.827 5871.83L419.667 7152.15L277.416 7489.06C277.386 7489.13 277.345 7489.19 277.288 7489.24C257.289 7506.78 217.458 7555.15 217.458 7608.99C217.458 7662.89 187.527 7606.55 172.542 7571.59C172.529 7571.56 172.52 7571.53 172.513 7571.5C162.551 7524.23 126.341 7428.47 60.9233 7421.84C60.5723 7421.8 60.2935 7422.13 60.3931 7422.47L97.6055 7548.99C97.6226 7549.05 97.6289 7549.11 97.6245 7549.17L82.6582 7751.22C82.6548 7751.26 82.645 7751.31 82.6284 7751.35C75.1118 7771.35 51.1597 7811.2 15.2505 7811.2C-20.6821 7811.2 15.2197 7871.06 37.6895 7901.03C37.7085 7901.06 37.73 7901.08 37.7539 7901.1L112.448 7968.33C112.551 7968.42 112.688 7968.47 112.825 7968.46L277.371 7954.4L2213.17 7791.07C2213.55 7791.04 2213.76 7790.62 2213.55 7790.3L2124.66 7651.25C2124.56 7651.09 2124.39 7651.01 2124.21 7651.02L321.5 7751.29L1014.19 5969.98C1014.24 5969.86 1014.33 5969.76 1014.45 5969.71C1052.04 5953.27 1153.26 5926.82 1154 5872.11C1154 5871.8 1154.27 5871.55 1154.57 5871.6C1222.14 5882.96 1342.3 5876.98 1287.1 5762.71C1287.04 5762.58 1287.03 5762.43 1287.08 5762.3L2144.09 3604.59C2144.29 3604.08 2145.04 3604.22 2145.05 3604.77L2186 5614.5C2188.16 5639.95 2214.1 5692.41 2300.52 5698.96C2300.78 5698.98 2301 5699.21 2300.99 5699.47L2280.5 6788.38C2280.5 6788.46 2280.48 6788.54 2280.45 6788.6L2186.12 6968.77C2186.04 6968.92 2186.04 6969.08 2186.11 6969.23L2228.93 7055.35C2228.97 7055.45 2228.99 7055.56 2228.97 7055.66L2128.53 7648.31C2128.51 7648.43 2128.54 7648.56 2128.6 7648.66L2217.07 7788.73L4389.1 8357.67C4389.49 8357.78 4389.83 8357.41 4389.7 8357.03L4340.09 8210.25C4340.03 8210.09 4339.9 8209.97 4339.74 8209.93L2439.5 7698.37C2422.67 7577.25 2404 7316.4 2464 7242C2523.99 7167.61 2489.01 6918.09 2464.01 6802.56L2464.01 6802.53C2464 6802.5 2464 6802.47 2464 6802.44L2503.98 5721.99C2503.99 5721.72 2504.21 5721.5 2504.48 5721.51C2569.14 5722.82 2697.5 5708.25 2697.5 5639.34C2697.5 5570.3 2732.8 5496.07 2750.48 5467.54C2750.49 5467.51 2750.51 5467.49 2750.52 5467.46C2763.18 5434.77 2780.89 5357.38 2750.5 5309C2720.16 5260.7 2775.95 4296.97 2807.81 3818.33C2807.85 3817.77 2808.63 3817.77 2808.79 3818.31L3423.92 6013.5C3423.97 6013.69 3423.91 6013.88 3423.77 6014.01L3391.67 6042.85C3391.56 6042.95 3391.5 6043.08 3391.5 6043.22V6108C3391.5 6108.28 3391.72 6108.5 3392 6108.5H3577.12C3577.34 6108.5 3577.54 6108.64 3577.6 6108.86C3590.35 6154.97 3625.6 6246.5 3665.5 6246.5C3705.5 6246.5 3834.93 6820.31 3894.64 7107.22L4126.81 7788.73C3795.81 6358.3 4390.42 8399.85 4396.42 8357.91C4402.37 8316.21 4381.68 8313.01 4462.42 8379.23C4462.81 8379.55 4463.41 8379.19 4463.25 8378.71L4369.98 8107.25C4376.29 8093.4 4382.83 8081.38 4389.52 8071C4406.26 8119.22 4418.39 8155.27 4423.8 8173.26C4423.29 8178.35 4424.05 8182.56 4426.37 8185.66C4427.7 8187.43 4426.73 8182.99 4423.8 8173.26C4427.29 8139.13 4488.52 8065.85 4523.37 8028.77C4523.57 8028.56 4523.54 8028.24 4523.31 8028.06C4495.7 8006.7 4438.72 7994.58 4389.52 8071C4292.88 7792.66 4042.55 7108.77 4041.84 7151.97C4041.84 7152.02 4041.84 7152.18 4041.86 7152.23L4027.97 7107.22L3729.9 6141.19C3729.89 6141.14 3729.88 6141.09 3729.88 6141.04C3729.92 6131.01 3738.95 6106.62 3774.81 6088.69C3810.65 6070.77 3839.55 6031.51 3849.62 6013.96C3849.68 6013.85 3849.69 6013.73 3849.67 6013.61L3797.3 5766.74C3797.29 5766.69 3797.27 5766.64 3797.24 5766.59C3769.76 5721.63 3708.9 5633.35 3684.94 5639.34C3660.98 5645.33 3300.5 4383.66 3123.26 3752.07C3118.26 3732.1 3112.77 3686.17 3130.75 3662.2C3148.72 3638.24 3083.35 3467.56 3048.39 3385.16C3048.37 3385.12 3048.35 3385.09 3048.33 3385.05C3013.36 3340.09 2943.52 3238.3 2943.52 3190.39C2943.52 3130.55 2980.87 2876.46 2951.12 2845.99C2951.04 2845.92 2951 2845.82 2950.98 2845.72L2891.1 2389.14C2891.1 2389.08 2891.08 2389.02 2891.05 2388.97C2873.57 2356.47 2844.68 2284.17 2868.63 2254.24C2892.59 2224.28 3078.32 2336.62 3168.19 2396.53L4059.28 3025.54C4059.36 3025.59 4059.42 3025.67 4059.46 3025.76L4074.33 3062.94C4074.36 3063.02 4074.42 3063.1 4074.49 3063.15C4286.72 3220.45 4716.96 3533.39 4740.92 3527.4C4764.78 3521.43 4810.43 3460.51 4830.53 3430.42C4830.68 3430.2 4830.64 3429.92 4830.43 3429.76C4628.09 3274.89 4213.65 2964.21 4171.74 2958.22C4134.15 2952.85 4145.9 2967.14 4159.52 2977.35L3040.98 2186.91C3040.91 2186.86 3040.83 2186.83 3040.75 2186.82L2838.92 2164.4C2838.76 2164.38 2838.62 2164.29 2838.54 2164.15L2771.64 2045.21C2771.47 2044.9 2771.65 2044.51 2772.01 2044.47C2934.52 2029.47 3258.06 1998.1 3258.06 1992.12C3258.06 1986.13 3292.99 1630.33 3310.47 1453.04C3310.48 1452.94 3310.47 1452.86 3310.42 1452.77C3290.45 1412.78 3258.09 1328.56 3288.02 1310.6C3317.94 1292.65 3380.24 1313.05 3407.75 1325.54C3407.81 1325.57 3407.88 1325.58 3407.95 1325.58C3445.43 1325.57 3520.18 1321.07 3520.18 1303.12C3520.18 1285.27 3549.72 1325.01 3564.8 1347.56C3564.97 1347.82 3565.31 1347.86 3565.54 1347.65Z" fill="#EA5B28"/>
<path d="M2703.86 3549.85L2733.82 3579.81C2718.84 4148.99 2688.89 5294.83 2688.89 5324.79C2688.89 5354.74 2663.92 5357.24 2651.44 5354.74L2703.86 3549.85Z" fill="black"/>
<path d="M2591.52 3582.05C2603.51 3540.11 2631.47 3564.58 2643.95 3582.05L2599.01 5019.97L2419.27 4997.5C2424.27 4538.17 2435.75 3609.01 2441.74 3567.07C2447.73 3525.13 2489.17 3569.57 2509.14 3597.03C2514.14 3614.5 2531.61 3649.45 2561.57 3649.45C2599.01 3649.45 2576.55 3634.48 2591.52 3582.05Z" fill="black"/>
<path d="M3482.73 5433.75L3527.67 5403.8L2973.47 3568.95H2913.56L3482.73 5433.75Z" fill="black"/>
<path d="M3460.27 5830.68L3482.73 5815.7L2831.18 3598.91H2808.71L3460.27 5830.68Z" fill="black"/>
<path d="M2501.65 5216.57L2509.14 5021.85L2464.21 5029.34V5216.57H2501.65Z" fill="black"/>
<path d="M2351.87 5231.54V5014.36H2314.42V5231.54H2351.87Z" fill="black"/>
<path d="M2217.07 5231.54L2247.02 5246.52C2257.01 4642.4 2272.49 3428.15 2254.51 3404.19C2236.54 3380.22 2222.06 3429.15 2217.07 3456.61V5231.54Z" fill="black"/>
<path d="M1895.03 3501.55L1947.46 3546.49C1750.24 4063.24 1345.33 5105.73 1303.39 5141.68C1261.45 5177.63 1260.95 5141.68 1265.94 5119.21L1895.03 3501.55Z" fill="black"/>
<path d="M1161.09 5680.9L2059.79 3479.09L2082.26 3501.55L1183.56 5695.88L1161.09 5680.9Z" fill="black"/>
<path d="M2149.66 3149.56L2127.2 3291.86L1977.41 3246.92L2044.81 3097.14L2149.66 3149.56Z" fill="black"/>
<path d="M2359.36 3097.14C2366.85 3114.61 2377.33 3149.56 2359.36 3149.56C2341.39 3149.56 2351.87 3114.61 2359.36 3097.14Z" fill="black"/>
<path d="M2501.65 3119.61V3044.71L2576.55 3134.58L2501.65 3119.61Z" fill="black"/>
<path d="M2741.31 3149.56C2777.26 3191.5 2846.16 3206.98 2876.11 3209.48L2853.64 3134.58C2801.22 3122.1 2705.36 3107.62 2741.31 3149.56Z" fill="black"/>
<path d="M2763.77 3231.94C2883.6 3237.94 2903.57 3289.36 2898.58 3314.32L2763.77 3351.77V3231.94Z" fill="black"/>
<path d="M2831.18 2348.22C2795.23 2474.04 2846.16 2790.08 2876.11 2932.38L2666.42 2969.82L2643.95 2827.53C2625.97 2833.52 2621.48 2785.09 2621.48 2760.13L2666.42 2662.77C2684.39 2602.85 2658.93 2542.94 2643.95 2520.47C2709.85 2466.55 2766.27 2383.17 2786.24 2348.22V2258.35L2831.18 2348.22Z" fill="black"/>
<path d="M2321.91 2041.17C2363.85 2041.17 2354.37 2076.12 2344.38 2093.59V2108.57C2319.42 2086.1 2279.97 2041.17 2321.91 2041.17Z" fill="black"/>
<path d="M2756.29 2131.04C2786.24 2119.05 2758.78 2081.11 2741.31 2063.63L2666.42 2131.04C2683.89 2136.03 2726.33 2143.02 2756.29 2131.04Z" fill="black"/>
<path d="M2928.54 1239.83L2846.16 1127.49C2698.87 1124.99 2392.31 1121.5 2344.38 1127.49C2296.45 1133.48 2314.42 1179.91 2329.4 1202.38C2426.76 1209.87 2631.97 1224.85 2673.9 1224.85C2715.84 1224.85 2721.34 1284.76 2718.84 1314.72L2928.54 1307.23V1239.83Z" fill="black"/>
<path d="M1932.48 1052.59C1962.43 1040.61 1969.92 1057.59 1969.92 1067.57V1075.07C1944.96 1072.57 1902.52 1064.58 1932.48 1052.59Z" fill="black"/>
</svg>
