<svg width="46" height="61" viewBox="0 0 46 61" fill="none" xmlns="http://www.w3.org/2000/svg">
<path d="M22.5127 0C10.0724 0 0 10.2915 0 22.9542V38.2233C0 44.1426 2.20124 49.5406 5.78661 53.6101C6.20351 50.97 7.62098 44.4789 11.9234 40.7289C14.8084 38.2233 17.0096 34.86 14.0579 26.6033C13.7244 25.6784 13.7244 24.6694 14.0579 23.7445C16.9763 18.6828 21.8457 20.5999 22.5794 19.7254C23.3132 18.851 25.4811 14.1929 25.4811 14.1929C25.7646 13.7052 25.9647 13.2007 26.1148 12.6963C26.615 10.9474 26.3149 9.06395 25.3977 7.50004C25.3643 7.44959 25.3977 7.39914 25.4644 7.39914L29.2999 7.90363C31.0842 8.13906 32.6851 9.21529 33.5023 10.8633C33.7191 11.3005 33.8858 11.7882 33.9692 12.3095C34.0526 12.8644 34.2027 13.4194 34.3528 13.9743C34.5362 14.6133 34.6696 15.1346 34.8364 15.7232C34.8364 15.7232 35.6201 18.2288 38.5051 20.4149V20.4317C38.3383 20.4822 37.3378 20.8858 36.2872 21.9788V21.9956C36.554 21.8611 37.8381 21.3398 39.3723 21.7938C39.3723 21.7938 39.3723 22.7524 37.4045 24.7199C35.8703 26.2501 35.8036 28.2008 35.8036 28.7389C35.8036 30.471 36.5373 31.7322 36.8708 32.2199L38.5218 34.5742C38.8053 34.9946 38.7719 35.5495 38.4217 35.9195C37.788 36.5921 37.0543 37.3657 36.4873 37.9711C36.3872 38.0888 36.3205 38.2233 36.3205 38.3746V39.8377C36.3205 40.1572 36.0537 40.4094 35.7536 40.3926C35.6035 40.3926 35.4867 40.359 35.3867 40.3085C35.1032 40.1908 34.803 40.1235 34.5028 40.1403C34.2527 40.1403 33.9692 40.1908 33.6857 40.2749C32.8853 40.5103 32.4017 40.9643 32.0848 41.1998C31.4678 41.6874 30.5006 42.2592 28.883 42.5451C28.883 42.5451 28.883 42.5451 28.883 42.5619C29.1331 42.6796 31.1676 43.5036 35.2366 43.0664C35.6868 43.0159 36.0871 43.3859 36.0871 43.8399C36.0871 44.109 36.0537 44.4285 35.987 44.7984C35.887 45.3702 35.4701 45.8242 34.9197 45.9588C34.136 46.1606 32.8686 46.2615 31.2176 45.5215H31.1843L31.0842 47.22C31.0842 47.22 31.0842 47.2368 31.1009 47.2368H33.0353C33.9025 47.2368 34.6696 47.859 34.803 48.7166C34.803 48.7671 34.803 48.8175 34.8197 48.8848C34.8864 49.8097 34.2861 50.7346 33.3188 51.1045C28.0992 54.3669 21.6789 48.683 20.7951 47.859C20.7784 47.8422 20.7451 47.859 20.7617 47.8926C23.53 52.8534 27.8824 55.8299 27.8824 55.8299V60.4375C37.7213 57.9824 45.0255 48.9352 45.0255 38.1392V22.8701C45.0255 10.2915 34.9531 0 22.5127 0Z" fill="white"/>
<path d="M30.8174 22.4665C30.9508 22.5001 31.0842 22.4328 31.0842 22.2983V21.8106C31.0842 21.8106 31.0342 21.6593 30.9508 21.6257C25.0808 19.6918 20.3281 25.3589 20.3281 25.3589C25.9146 21.0371 29.7001 22.2647 30.8174 22.4665Z" fill="white"/>
<path d="M29.6001 26.3174C29.4667 26.5192 29.5668 26.9565 29.0165 27.1919C27.8825 27.6796 26.1482 27.6627 23.38 27.8477C22.5462 27.8982 21.3955 27.8477 21.3955 27.8477C21.3955 27.8477 25.6146 28.5708 29.6835 27.7973C29.8003 27.7805 29.867 27.6627 29.8503 27.545L29.6835 26.3174C29.6835 26.3174 29.6335 26.267 29.6001 26.3006V26.3174Z" fill="white"/>
</svg>
