<?xml version="1.0" encoding="UTF-8"?>
<svg xmlns="http://www.w3.org/2000/svg" version="1.1" viewBox="0 0 841.9 595.3">
  <defs>
    <style>
      .cls-1 {
        fill: #fff;
      }
    </style>
  </defs>
  <!-- Generator: Adobe Illustrator 28.7.1, SVG Export Plug-In . SVG Version: 1.2.0 Build 142)  -->
  <g>
    <g id="Calque_1">
      <g>
        <path class="cls-1" d="M420.9,0C297.6,0,197.7,101.1,197.7,225.8v150.2c0,58.2,21.8,111.2,57.5,151.2,4.1-25.9,18.2-89.8,60.9-126.6,28.6-24.7,50.5-57.8,21.1-138.9-3.3-9.1-3.4-19.1,0-28.1,28.9-49.9,77.2-30.9,84.5-39.5,7.3-8.6,28.9-54.4,28.9-54.4,2.8-4.8,4.8-9.8,6.2-14.6,4.9-17.2,2-35.7-7.1-51.1-.3-.5,0-1,.6-1l38.1,5c17.7,2.3,35.5,12.1,41.7,29,3.8,10.5,9.3,32.9,13.7,46.2,1.5,4.5,3.5,8.5,5.9,12.5,3.7,6.2,11.3,19.8,16.7,34.5l3.1,9.3c-1.3-.1-3.3-.3-5.7-.3-4.8,0-7.2,0-8.3,1.1-.4.4,1.2,9,1.4,9,.6,0,2.9-.5,6.3-.9,4.1-.4,7,.2,9,.6h0c1.9,9.9.8,17.8-3.5,24.4-11.7,17.9-15.8,34.3-15.8,39.6-.1,17.1,7.3,29.5,10.6,34.3l16.3,23.1c2.9,4.1,2.5,9.7-.9,13.3-6.2,6.6-13.6,14.3-19.1,20.2-1,1.1-1.6,2.5-1.6,4v14.3c0,3.1-2.6,5.6-5.7,5.4h0c-1.4,0-2.7-.4-3.7-.8-2.8-1.1-5.8-1.8-8.8-1.7-2.5.1-5.3.5-8.2,1.3-7.9,2.3-12.8,6.7-15.8,9.1-6.1,4.8-15.8,10.5-31.7,13.3,0,0-.1.1,0,.2,2.5,1.1,22.7,9.2,62.9,5,4.5-.5,8.4,3.1,8.4,7.7,0,2.6-.3,5.8-1,9.5-1,5.6-5.1,10.1-10.5,11.5-7.7,2-20.3,2.9-36.7-4.3-.1,0-.3,0-.3.2l-1,16.6c0,.1,0,.2.2.2h19.2c8.5,0,16.2,6,17.5,14.6,0,.5.2,1.1.2,1.6.6,9.2-5.4,18.2-14.9,21.9-51.8,32-115.4-23.8-124.3-31.9-.2-.2-.5,0-.3.3,27.4,48.8,70.7,78,70.7,78v45.2c97.6-24.1,170-113.2,170-219.3v-150.2C644.2,101.1,544.3,0,420.9,0"/>
        <path class="cls-1" d="M572.1,191.8"/>
        <path class="cls-1" d="M503.3,221c1.4.3,2.7-.3,2.7-1.7v-4.9c0-.8-.5-1.6-1.3-1.8-58.2-19-105.4,36.7-105.4,36.7,55.3-42.4,92.9-30.4,104-28.4"/>
        <path class="cls-1" d="M491.2,258.8c-1.3,1.9-.3,6.3-5.8,8.6-11.2,4.8-28.5,4.6-55.9,6.4-8.3.6-19.7.1-19.7.1,0,0,41.8,7,82.1-.5,1.1-.2,1.9-1.3,1.7-2.4l-1.7-12c0-.4-.6-.5-.8-.2"/>
      </g>
    </g>
  </g>
</svg>